HIERARCHY
ROOT Hips
{
	OFFSET 0.000000 0.000000 0.000000
	CHANNELS 6 Xposition Yposition Zposition Xrotation Yrotation Zrotation
	JOINT LeftUpLeg_virtual
	{
		OFFSET 0.000000 0.000000 0.000000
		CHANNELS 3 Xrotation Yrotation Zrotation
		JOINT LeftUpLeg
		{
			OFFSET 15.427100 -6.655098 0.678600
			CHANNELS 3 Xrotation Yrotation Zrotation
			JOINT LeftLeg
			{
				OFFSET 4.081073 -39.591068 13.024000
				CHANNELS 3 Xrotation Yrotation Zrotation
				JOINT LeftFoot
				{
					OFFSET -4.081074 -37.707932 -15.979700
					CHANNELS 3 Xrotation Yrotation Zrotation
					JOINT LeftToeBase
					{
						OFFSET 5.346399 -15.068900 20.645000
						CHANNELS 3 Xrotation Yrotation Zrotation
						JOINT LeftToe_End
						{
							OFFSET 2.754700 0.931300 11.300900
							CHANNELS 3 Xrotation Yrotation Zrotation
							End Site
							{
								OFFSET 0 0 0
							}
						}
					}
				}
			}
		}
	}
	JOINT RightUpLeg_virtual
	{
		OFFSET 0.000000 0.000000 0.000000
		CHANNELS 3 Xrotation Yrotation Zrotation
		JOINT RightUpLeg
		{
			OFFSET -15.569500 -6.655098 0.678600
			CHANNELS 3 Xrotation Yrotation Zrotation
			JOINT RightLeg
			{
				OFFSET -4.081825 -39.591045 13.023800
				CHANNELS 3 Xrotation Yrotation Zrotation
				JOINT RightFoot
				{
					OFFSET 4.081824 -37.707954 -15.979600
					CHANNELS 3 Xrotation Yrotation Zrotation
					JOINT RightToeBase
					{
						OFFSET -5.346400 -15.068900 20.645000
						CHANNELS 3 Xrotation Yrotation Zrotation
						JOINT RightToe_End
						{
							OFFSET -2.754700 0.931300 11.300900
							CHANNELS 3 Xrotation Yrotation Zrotation
							End Site
							{
								OFFSET 0 0 0
							}
						}
					}
				}
			}
		}
	}
	JOINT Spine_virtual
	{
		OFFSET 0.000000 0.000000 0.000000
		CHANNELS 3 Xrotation Yrotation Zrotation
		JOINT Spine
		{
			OFFSET -0.279200 12.230698 -2.892100
			CHANNELS 3 Xrotation Yrotation Zrotation
			JOINT Spine1
			{
				OFFSET -0.232667 10.192268 -1.242267
				CHANNELS 3 Xrotation Yrotation Zrotation
				JOINT Spine1_split
				{
					OFFSET -0.232667 10.192268 -1.242267
					CHANNELS 3 Xrotation Yrotation Zrotation
					JOINT Spine2
					{
						OFFSET -0.232667 10.192268 -1.242267
						CHANNELS 3 Xrotation Yrotation Zrotation
						JOINT Neck_virtual
						{
							OFFSET 0.000000 0.000000 0.000000
							CHANNELS 3 Xrotation Yrotation Zrotation
							JOINT Neck
							{
								OFFSET -0.418800 17.814194 8.416900
								CHANNELS 3 Xrotation Yrotation Zrotation
								JOINT Head
								{
									OFFSET 0.000000 7.031097 3.806800
									CHANNELS 3 Xrotation Yrotation Zrotation
									JOINT HeadTop_End
									{
										OFFSET 0.000000 24.646606 12.978600
										CHANNELS 3 Xrotation Yrotation Zrotation
										End Site
										{
											OFFSET 0 0 0
										}
									}
								}
							}
						}
						JOINT LeftShoulder_virtual
						{
							OFFSET 0.000000 0.000000 0.000000
							CHANNELS 3 Xrotation Yrotation Zrotation
							JOINT LeftShoulder
							{
								OFFSET 8.476499 7.247704 -3.868750
								CHANNELS 3 Xrotation Yrotation Zrotation
								JOINT LeftShoulder_split
								{
									OFFSET 8.476499 7.247704 -3.868750
									CHANNELS 3 Xrotation Yrotation Zrotation
									JOINT LeftArm
									{
										OFFSET 9.308998 -2.777710 0.208600
										CHANNELS 3 Xrotation Yrotation Zrotation
										JOINT LeftForeArm
										{
											OFFSET 29.972298 0.000000 0.000000
											CHANNELS 3 Xrotation Yrotation Zrotation
											JOINT LeftHand
											{
												OFFSET 26.026505 0.000000 0.000000
												CHANNELS 3 Xrotation Yrotation Zrotation
												End Site
												{
													OFFSET 0 0 0
												}
											}
										}
									}
								}
							}
						}
						JOINT RightShoulder_virtual
						{
							OFFSET 0.000000 0.000000 0.000000
							CHANNELS 3 Xrotation Yrotation Zrotation
							JOINT RightShoulder
							{
								OFFSET -7.570500 7.247704 -3.868750
								CHANNELS 3 Xrotation Yrotation Zrotation
								JOINT RightShoulder_split
								{
									OFFSET -7.570500 7.247704 -3.868750
									CHANNELS 3 Xrotation Yrotation Zrotation
									JOINT RightArm
									{
										OFFSET -9.308998 -2.777710 0.208500
										CHANNELS 3 Xrotation Yrotation Zrotation
										JOINT RightForeArm
										{
											OFFSET -29.972300 0.000000 0.000000
											CHANNELS 3 Xrotation Yrotation Zrotation
											JOINT RightHand
											{
												OFFSET -26.026505 0.000000 0.000000
												CHANNELS 3 Xrotation Yrotation Zrotation
												End Site
												{
													OFFSET 0 0 0
												}
											}
										}
									}
								}
							}
						}
					}
				}
			}
		}
	}
}
MOTION
Frames: 7
Frame Time: 0.03333333
8.954012 85.922867 -6.181660 0.000000 0.000000 0.000000 9.961730 -31.339121 -17.017497 -26.683261 -5.431411 31.696456 36.164854 4.112366 11.010583 -11.976421 30.164260 -17.152198 -0.193712 0.212111 -0.324264 0.000000 0.000000 0.000000 11.937317 -30.692350 -17.696643 -22.876155 0.667847 27.641180 12.483480 2.563285 10.459713 2.987284 13.720493 -7.090303 -1.805259 3.271410 -0.680211 0.000000 0.000000 0.000000 8.297402 -33.080986 -17.969939 17.159913 -4.660316 14.619327 13.978556 -0.566486 10.455629 1.624132 -1.374834 0.674549 0.000000 0.000000 0.000000 12.732448 -0.705303 9.470549 -9.257410 -6.079970 3.204084 36.645232 -14.515690 30.399434 0.000000 0.000000 0.000000 14.255122 -1.245272 9.624754 2.411784 -19.916021 -11.500480 0.904646 -1.051836 -0.441839 -35.466136 -27.225201 -56.939746 -0.937927 -14.848667 -1.456438 0.000000 0.000000 0.000000 12.313762 -1.056360 9.918482 2.449181 6.864014 11.502602 -4.584830 2.716230 -0.667239 0.515451 40.765462 26.611107 1.789159 22.789416 1.260110 0.000000 0.000000 0.000000 
8.805192 85.922989 -6.144253 0.000000 0.000000 0.000000 9.938213 -31.012897 -17.013030 -26.870569 -5.284522 31.829744 36.177545 4.039756 11.014337 -11.971670 29.834239 -17.132157 -0.096975 0.210336 -0.333226 0.000000 0.000000 0.000000 11.902491 -30.319620 -17.696421 -22.869090 0.587178 27.609291 12.621411 2.535380 10.461462 2.915351 13.526225 -7.181696 -1.827322 3.252920 -0.696623 0.000000 0.000000 0.000000 8.276598 -32.708249 -17.967784 17.060967 -4.723711 14.764099 13.880602 -0.627462 10.511588 1.609334 -1.382975 0.670682 0.000000 0.000000 0.000000 12.643802 -0.742408 9.520701 -9.139101 -6.026619 3.235435 36.800701 -14.658459 30.406172 0.000000 0.000000 0.000000 14.140508 -1.278977 9.658276 2.389949 -19.942421 -11.618393 0.858845 -1.081453 -0.409841 -35.162890 -27.555457 -57.215610 -1.030266 -15.023168 -1.482656 0.000000 0.000000 0.000000 12.225414 -1.090315 9.960558 2.584064 7.089016 10.973628 -4.499520 2.776820 -0.737157 0.846319 40.515203 26.892521 1.773215 23.282843 1.179808 0.000000 0.000000 0.000000 
8.636255 85.942421 -6.095467 0.000000 0.000000 0.000000 9.906108 -30.593790 -16.991347 -27.019964 -5.195959 31.907878 36.125304 3.953017 11.033697 -11.932456 29.455891 -17.115412 0.014659 0.204923 -0.361327 0.000000 0.000000 0.000000 11.871496 -29.853244 -17.674238 -22.826029 0.546999 27.542465 12.735759 2.493970 10.437675 2.812829 13.276555 -7.289667 -1.809719 3.227702 -0.694281 0.000000 0.000000 0.000000 8.246077 -32.277705 -17.948089 16.949471 -4.780606 14.913293 13.776429 -0.686347 10.575497 1.589058 -1.396016 0.677142 0.000000 0.000000 0.000000 12.553562 -0.779542 9.579748 -9.033379 -5.988935 3.270162 36.958253 -14.815432 30.401350 0.000000 0.000000 0.000000 14.020296 -1.308307 9.700421 2.374285 -19.953660 -11.726993 0.821828 -1.110535 -0.388958 -34.768538 -27.829666 -57.483200 -1.130706 -15.203463 -1.510853 0.000000 0.000000 0.000000 12.133408 -1.123756 10.008078 2.729489 7.277392 10.439809 -4.410260 2.817595 -0.806098 1.181445 40.309874 27.175533 1.764414 23.790355 1.107157 0.000000 0.000000 0.000000 
8.450696 85.976685 -6.035652 0.000000 0.000000 0.000000 9.870528 -30.093322 -16.962423 -27.111244 -5.182484 31.937524 36.033435 3.863330 11.063028 -11.869771 29.065081 -17.124295 0.133714 0.197277 -0.403239 0.000000 0.000000 0.000000 11.840917 -29.298957 -17.644505 -22.743446 0.550037 27.452301 12.822943 2.431398 10.397844 2.663296 12.969284 -7.451831 -1.699851 3.197653 -0.672933 0.000000 0.000000 0.000000 8.214135 -31.795569 -17.916976 16.824236 -4.835283 15.071127 13.665876 -0.744075 10.646977 1.562945 -1.409205 0.669901 0.000000 0.000000 0.000000 12.461769 -0.817813 9.648373 -8.944004 -5.967541 3.306832 37.128037 -14.980311 30.387798 0.000000 0.000000 0.000000 13.894377 -1.334543 9.752205 2.367406 -19.944642 -11.814217 0.794878 -1.139415 -0.384299 -34.296890 -28.054613 -57.741183 -1.234157 -15.384928 -1.538751 0.000000 0.000000 0.000000 12.039761 -1.157900 10.060859 2.885369 7.424440 9.895218 -4.330156 2.846301 -0.860062 1.508006 40.148077 27.461389 1.760970 24.303970 1.045999 0.000000 0.000000 0.000000 
8.255795 86.021736 -5.956055 0.000000 0.000000 0.000000 9.825884 -29.536586 -16.942913 -27.129575 -5.253944 31.929034 35.925057 3.785874 11.100260 -11.829573 28.706790 -17.150607 0.257191 0.187780 -0.445725 0.000000 0.000000 0.000000 11.805272 -28.674251 -17.625336 -22.623868 0.587688 27.351095 12.909168 2.355389 10.361230 2.500582 12.618804 -7.662785 -1.541646 3.166079 -0.639333 0.000000 0.000000 0.000000 8.184963 -31.262698 -17.884722 16.691043 -4.893841 15.246222 13.547724 -0.803099 10.725207 1.523126 -1.442343 0.663363 0.000000 0.000000 0.000000 12.366511 -0.858948 9.726840 -8.869191 -5.964620 3.341637 37.320649 -15.148045 30.375180 0.000000 0.000000 0.000000 13.763275 -1.360366 9.812645 2.370521 -19.909861 -11.874270 0.773651 -1.163169 -0.405987 -33.765576 -28.235217 -57.988668 -1.331301 -15.566295 -1.561850 0.000000 0.000000 0.000000 11.946559 -1.193800 10.119580 3.052148 7.538025 9.338475 -4.260339 2.881881 -0.893747 1.795913 40.014332 27.778012 1.760375 24.792998 0.998498 0.000000 0.000000 0.000000 
8.054870 86.069054 -5.862011 0.000000 0.000000 0.000000 9.771047 -28.941380 -16.948968 -27.062222 -5.383928 31.900149 35.794856 3.741305 11.137818 -11.886419 28.406729 -17.153935 0.387260 0.177784 -0.475264 0.000000 0.000000 0.000000 11.748992 -28.007659 -17.637770 -22.473489 0.632233 27.254634 12.997825 2.274464 10.344044 2.374393 12.240702 -7.886342 -1.431138 3.133410 -0.605235 0.000000 0.000000 0.000000 8.160092 -30.684932 -17.867276 16.557010 -4.961019 15.444729 13.423375 -0.865782 10.809099 1.496244 -1.484019 0.650309 0.000000 0.000000 0.000000 12.265614 -0.904865 9.814936 -8.808111 -5.978722 3.374850 37.541571 -15.308684 30.372786 0.000000 0.000000 0.000000 13.627233 -1.389561 9.880456 2.382440 -19.849877 -11.906428 0.771734 -1.192402 -0.440566 -33.197810 -28.377286 -58.222363 -1.410517 -15.726919 -1.576782 0.000000 0.000000 0.000000 11.854718 -1.232505 10.185216 3.227718 7.625766 8.776914 -4.205091 2.929889 -0.902520 2.011231 39.884070 28.159526 1.757996 25.245976 0.964123 0.000000 0.000000 0.000000 
7.856693 86.111595 -5.746811 0.000000 0.000000 0.000000 9.704153 -28.313822 -16.997259 -26.912322 -5.545018 31.866883 35.640859 3.729166 11.155832 -12.053480 28.161384 -17.126086 0.501094 0.168249 -0.477666 0.000000 0.000000 0.000000 11.658732 -27.318035 -17.691358 -22.295085 0.657613 27.178267 13.078056 2.196541 10.359775 2.302486 11.858296 -8.075958 -1.449630 3.098766 -0.580943 0.000000 0.000000 0.000000 8.135974 -30.061910 -17.875099 16.430396 -5.040815 15.674364 13.292280 -0.932494 10.898106 1.470114 -1.541506 0.633799 0.000000 0.000000 0.000000 12.158496 -0.956989 9.910740 -8.754128 -6.007895 3.404410 37.788182 -15.457053 30.399594 0.000000 0.000000 0.000000 13.488958 -1.425379 9.954342 2.399466 -19.766164 -11.914849 0.792370 -1.202704 -0.485333 -32.621246 -28.488977 -58.444167 -1.463733 -15.840377 -1.581073 0.000000 0.000000 0.000000 11.761941 -1.275772 10.257017 3.408159 7.697960 8.223323 -4.167528 2.980013 -0.885283 2.123044 39.736388 28.630118 1.744903 25.662103 0.940228 0.000000 0.000000 0.000000 
